<svg width="213" height="44" viewBox="0 0 213 44" fill="none" xmlns="http://www.w3.org/2000/svg">
<path d="M66.724 16.016C64.7929 16.016 63.1589 16.6398 62.0597 17.7391V10.4604H57.6034V32.5934H61.7626V31.0486C62.9213 32.2963 64.7038 32.9499 66.6943 32.9499C71.418 32.9499 74.9533 29.2066 74.9533 24.4829C74.9533 19.7295 71.3288 16.016 66.724 16.016ZM66.1595 28.9393C63.7531 28.9393 62.0597 27.127 62.0597 24.4829C62.0597 21.8686 63.7531 20.0266 66.1595 20.0266C68.5956 20.0266 70.3484 21.8983 70.3484 24.4829C70.3484 27.0973 68.5956 28.9393 66.1595 28.9393Z" fill="#3A395E"/>
<path d="M85.5978 16.1942C83.6074 16.1942 82.0328 16.7884 81.201 18.8086V16.3725H77.0417V32.5934H81.498V23.8591C81.498 21.4526 82.9835 20.0563 85.1522 20.0563H87.2912V16.1942H85.5978Z" fill="#3A395E"/>
<path d="M95.9743 16.016C92.5281 16.016 89.7355 17.7391 88.7848 20.4128L92.6172 22.2548C93.0926 20.7991 94.3998 19.8781 95.9743 19.8781C97.4598 19.8781 98.4699 20.6802 98.4699 21.8983V22.433L93.3897 23.5026C90.092 24.1859 88.1906 25.7604 88.1906 28.1668C88.1906 30.8703 90.5079 32.9499 94.1918 32.9499C96.0634 32.9499 97.5489 32.3855 98.7669 31.108V32.5934H102.926V21.8983C102.926 18.4224 100.104 16.016 95.9743 16.016ZM94.8751 29.682C93.5976 29.682 92.7955 29.0878 92.7955 28.1074C92.7955 27.3647 93.2708 26.8002 94.1918 26.5923L98.4699 25.6416V26.414C98.4699 28.2262 96.8953 29.682 94.8751 29.682Z" fill="#3A395E"/>
<path d="M114.005 16.016C111.955 16.016 110.291 16.7587 109.459 18.3332V16.3725H105.3V32.5934H109.756V23.1163C109.756 21.2447 110.974 20.0266 112.727 20.0266C114.48 20.0266 115.698 21.2447 115.698 23.1163V32.5934H120.154V22.1657C120.154 18.4818 117.659 16.016 114.005 16.016Z" fill="#3A395E"/>
<path d="M134.826 10.4604V17.7391C133.726 16.6398 132.092 16.016 130.161 16.016C125.557 16.016 121.932 19.7295 121.932 24.4829C121.932 29.2066 125.467 32.9499 130.191 32.9499C132.182 32.9499 133.964 32.2963 135.123 31.0486V32.5934H139.282V10.4604H134.826ZM130.726 28.9393C128.29 28.9393 126.537 27.0973 126.537 24.4829C126.537 21.8983 128.29 20.0266 130.726 20.0266C133.132 20.0266 134.826 21.8686 134.826 24.4829C134.826 27.127 133.132 28.9393 130.726 28.9393Z" fill="#3A395E"/>
<path d="M143.539 32.5934H147.995V20.2346H151.501V16.3725H147.995V15.8971C147.995 14.4711 148.887 13.7284 150.55 13.7284C150.848 13.7284 151.145 13.7581 151.531 13.8175V10.0148C151.115 9.92566 150.461 9.86624 149.956 9.86624C145.916 9.86624 143.539 12.0647 143.539 15.8971V16.3725H140.776V20.2346H143.539V32.5934Z" fill="#3A395E"/>
<path d="M160.809 32.9499C165.622 32.9499 169.484 29.3849 169.484 24.4829C169.484 19.581 165.622 16.016 160.809 16.016C155.996 16.016 152.134 19.581 152.134 24.4829C152.134 29.3849 155.996 32.9499 160.809 32.9499ZM160.809 28.9393C158.373 28.9393 156.739 27.0973 156.739 24.4829C156.739 21.8983 158.373 20.0266 160.809 20.0266C163.245 20.0266 164.879 21.8983 164.879 24.4829C164.879 27.0973 163.245 28.9393 160.809 28.9393Z" fill="#3A395E"/>
<path d="M171.564 32.5934H176.021V10.4604H171.564V32.5934Z" fill="#3A395E"/>
<path d="M178.991 14.9167H183.448V10.4604H178.991V14.9167ZM178.991 32.5934H183.448V16.3725H178.991V32.5934Z" fill="#3A395E"/>
<path d="M194.202 32.9499C199.015 32.9499 202.877 29.3849 202.877 24.4829C202.877 19.581 199.015 16.016 194.202 16.016C189.389 16.016 185.527 19.581 185.527 24.4829C185.527 29.3849 189.389 32.9499 194.202 32.9499ZM194.202 28.9393C191.766 28.9393 190.132 27.0973 190.132 24.4829C190.132 21.8983 191.766 20.0266 194.202 20.0266C196.638 20.0266 198.272 21.8983 198.272 24.4829C198.272 27.0973 196.638 28.9393 194.202 28.9393Z" fill="#3A395E"/>
<rect x="0.176025" y="0.414337" width="43.0425" height="43.0425" rx="15" fill="#7051EF"/>
<path d="M31.0847 24.5006C30.6061 26.2525 29.6467 27.8354 28.3152 29.0705C26.9837 30.3055 25.3332 31.1433 23.5503 31.4891C21.7674 31.835 19.9233 31.675 18.2266 31.0273C16.5299 30.3796 15.0484 29.27 13.9494 27.8241C12.8505 26.3782 12.1781 24.6537 12.0083 22.8455C11.8385 21.0374 12.1781 19.2178 12.9885 17.5926C13.799 15.9673 15.0482 14.6014 16.5946 13.6491C18.141 12.6968 19.9231 12.1963 21.7391 12.2041" stroke="white" stroke-width="6.12643" stroke-linecap="round"/>
<circle cx="29.9409" cy="15.0795" r="3.51703" fill="white"/>
<circle cx="207.931" cy="30.3437" r="2.81287" fill="#7051EF"/>
</svg>
